<svg width="76" height="41" viewBox="0 0 76 41" fill="none" xmlns="http://www.w3.org/2000/svg">
<path d="M2.125 35V17.5455H9.65909C10.9545 17.5455 12.0881 17.8011 13.0597 18.3125C14.0313 18.8239 14.7869 19.5426 15.3267 20.4688C15.8665 21.3949 16.1364 22.4773 16.1364 23.7159C16.1364 24.9659 15.858 26.0483 15.3011 26.9631C14.75 27.8778 13.9744 28.5824 12.9744 29.0767C11.9801 29.571 10.8182 29.8182 9.48864 29.8182H4.98864V26.1364H8.53409C9.09091 26.1364 9.56534 26.0398 9.95739 25.8466C10.3551 25.6477 10.6591 25.3665 10.8693 25.0028C11.0852 24.6392 11.1932 24.2102 11.1932 23.7159C11.1932 23.2159 11.0852 22.7898 10.8693 22.4375C10.6591 22.0795 10.3551 21.8068 9.95739 21.6193C9.56534 21.4261 9.09091 21.3295 8.53409 21.3295H6.86364V35H2.125ZM20.2294 35H15.1158L20.8771 17.5455H27.3544L33.1158 35H28.0021L24.1839 22.3523H24.0476L20.2294 35ZM19.2749 28.1136H28.8885V31.6591H19.2749V28.1136ZM32.2997 17.5455H37.5838L40.9929 24.6364H41.1293L44.5384 17.5455H49.8224L43.4134 29.5114V35H38.7088V29.5114L32.2997 17.5455Z" fill="black"/>
<path d="M54.8786 29.5455V29.1364C54.8786 28.1989 54.9524 27.4517 55.1001 26.8949C55.2479 26.3381 55.4666 25.892 55.7564 25.5568C56.0462 25.2159 56.4013 24.9091 56.8217 24.6364C57.1854 24.3977 57.5092 24.1676 57.7933 23.946C58.0831 23.7244 58.3104 23.4886 58.4751 23.2386C58.6456 22.9886 58.7308 22.7045 58.7308 22.3864C58.7308 22.1023 58.6626 21.8523 58.5263 21.6364C58.3899 21.4205 58.2053 21.2528 57.9723 21.1335C57.7393 21.0142 57.4808 20.9545 57.1967 20.9545C56.8899 20.9545 56.6058 21.0256 56.3445 21.1676C56.0888 21.3097 55.8814 21.5057 55.7223 21.7557C55.5689 22.0057 55.4922 22.2955 55.4922 22.625H51.1286C51.1399 21.375 51.424 20.3608 51.9808 19.5824C52.5376 18.7983 53.2763 18.2244 54.1967 17.8608C55.1172 17.4915 56.1286 17.3068 57.2308 17.3068C58.4467 17.3068 59.532 17.4858 60.4865 17.8438C61.4411 18.196 62.1939 18.7301 62.745 19.446C63.2962 20.1562 63.5717 21.0455 63.5717 22.1136C63.5717 22.8011 63.4524 23.4062 63.2138 23.929C62.9808 24.446 62.6541 24.9034 62.2337 25.3011C61.8189 25.6932 61.3331 26.0511 60.7763 26.375C60.3672 26.6136 60.0234 26.8608 59.745 27.1165C59.4666 27.3665 59.2564 27.6534 59.1143 27.9773C58.9723 28.2955 58.9013 28.6818 58.9013 29.1364V29.5455H54.8786ZM56.9581 35.2727C56.299 35.2727 55.7337 35.0426 55.2621 34.5824C54.7962 34.1165 54.5661 33.5511 54.5717 32.8864C54.5661 32.2386 54.7962 31.6847 55.2621 31.2244C55.7337 30.7642 56.299 30.5341 56.9581 30.5341C57.5831 30.5341 58.1342 30.7642 58.6115 31.2244C59.0945 31.6847 59.3388 32.2386 59.3445 32.8864C59.3388 33.3295 59.2223 33.733 58.995 34.0966C58.7734 34.4545 58.4837 34.7415 58.1257 34.9574C57.7678 35.1676 57.3786 35.2727 56.9581 35.2727ZM71.2805 17.5455L70.8374 29.5455H66.951L66.5078 17.5455H71.2805ZM68.8942 35.2727C68.2351 35.2727 67.6697 35.0426 67.1982 34.5824C66.7322 34.1165 66.5021 33.5511 66.5078 32.8864C66.5021 32.2386 66.7322 31.6847 67.1982 31.2244C67.6697 30.7642 68.2351 30.5341 68.8942 30.5341C69.5192 30.5341 70.0703 30.7642 70.5476 31.2244C71.0305 31.6847 71.2749 32.2386 71.2805 32.8864C71.2749 33.3295 71.1584 33.733 70.9311 34.0966C70.7095 34.4545 70.4197 34.7415 70.0618 34.9574C69.7038 35.1676 69.3146 35.2727 68.8942 35.2727Z" fill="#7C3AED"/>
<path d="M3.00994 13L0.221591 3.54545H3.08381L4.37642 9.36222H4.45028L5.98295 3.54545H8.2358L9.76847 9.38068H9.84233L11.1349 3.54545H13.9972L11.2088 13H8.75284L7.14631 7.71875H7.07244L5.46591 13H3.00994ZM14.8281 13V3.54545H17.3949V7.23864H20.7926V3.54545H23.3594V13H20.7926V9.30682H17.3949V13H14.8281ZM27.0341 13H24.2642L27.3849 3.54545H30.8935L34.0142 13H31.2443L29.1761 6.14915H29.1023L27.0341 13ZM26.517 9.26989H31.7244V11.1903H26.517V9.26989ZM33.4729 5.61364V3.54545H41.6903V5.61364H38.8465V13H36.3167V5.61364H33.4729ZM47.7528 6.5C47.7282 6.19223 47.6128 5.95218 47.4066 5.77983C47.2035 5.60748 46.8942 5.52131 46.4787 5.52131C46.214 5.52131 45.997 5.55362 45.8278 5.61825C45.6616 5.67981 45.5385 5.76444 45.4585 5.87216C45.3784 5.97988 45.3369 6.10298 45.3338 6.24148C45.3277 6.35535 45.3477 6.45845 45.3938 6.55078C45.4431 6.64003 45.52 6.72159 45.6246 6.79545C45.7293 6.86624 45.8632 6.93087 46.0263 6.98935C46.1894 7.04782 46.3833 7.10014 46.608 7.14631L47.3835 7.3125C47.9067 7.4233 48.3545 7.56948 48.7269 7.75107C49.0993 7.93265 49.404 8.14654 49.641 8.39276C49.878 8.63589 50.0518 8.9098 50.1626 9.21449C50.2765 9.51918 50.335 9.85156 50.3381 10.2116C50.335 10.8333 50.1796 11.3596 49.8718 11.7905C49.564 12.2214 49.1239 12.5491 48.5515 12.7738C47.9821 12.9985 47.2973 13.1108 46.4972 13.1108C45.6754 13.1108 44.9583 12.9892 44.3459 12.7461C43.7365 12.503 43.2625 12.129 42.924 11.6243C42.5885 11.1165 42.4193 10.4671 42.4162 9.67614H44.8537C44.8691 9.96544 44.9414 10.2086 45.0707 10.4055C45.1999 10.6025 45.3815 10.7518 45.6154 10.8533C45.8524 10.9549 46.134 11.0057 46.4602 11.0057C46.7341 11.0057 46.9634 10.9718 47.1481 10.9041C47.3327 10.8364 47.4728 10.7425 47.5682 10.6225C47.6636 10.5025 47.7128 10.3655 47.7159 10.2116C47.7128 10.067 47.6651 9.94081 47.5728 9.8331C47.4835 9.7223 47.3358 9.62382 47.1296 9.53764C46.9234 9.44839 46.6449 9.36529 46.294 9.28835L45.3523 9.08523C44.5152 8.90365 43.855 8.6005 43.3718 8.17578C42.8917 7.74799 42.6532 7.16477 42.6562 6.42614C42.6532 5.82599 42.8132 5.30125 43.1364 4.85192C43.4626 4.3995 43.9135 4.04711 44.489 3.79474C45.0676 3.54238 45.7308 3.41619 46.4787 3.41619C47.242 3.41619 47.9021 3.54392 48.4592 3.79936C49.0162 4.05481 49.4455 4.41489 49.7472 4.87962C50.0518 5.34126 50.2057 5.88139 50.2088 6.5H47.7528ZM53.9043 3.54545H57.0989L59.2963 8.90057H59.4071L61.6046 3.54545H64.7992V13H62.2878V7.53409H62.214L60.1088 12.9261H58.5946L56.4895 7.49716H56.4157V13H53.9043V3.54545ZM65.6278 3.54545H68.4901L70.3366 7.38636H70.4105L72.2571 3.54545H75.1193L71.6477 10.027V13H69.0994V10.027L65.6278 3.54545Z" fill="black"/>
</svg>
